<svg xmlns="http://www.w3.org/2000/svg" viewBox="0 0 400 250" width="400" height="250">
  <defs>
    <linearGradient id="bg" x1="0%" y1="0%" x2="100%" y2="100%">
      <stop offset="0%" style="stop-color:#FAF8EF"/>
      <stop offset="100%" style="stop-color:#F5E6CC"/>
    </linearGradient>
  </defs>
  <!-- 背景 -->
  <rect width="400" height="250" rx="16" fill="url(#bg)"/>
  <!-- グリッド -->
  <g transform="translate(115, 30)">
    <rect width="170" height="170" rx="8" fill="#BBADA0"/>
    <!-- タイルセル -->
    <rect x="8" y="8" width="35" height="35" rx="4" fill="#CDC1B4"/>
    <rect x="49" y="8" width="35" height="35" rx="4" fill="#EDE0C8"/>
    <text x="66" y="32" text-anchor="middle" font-family="sans-serif" font-size="16" font-weight="700" fill="#776E65">4</text>
    <rect x="90" y="8" width="35" height="35" rx="4" fill="#CDC1B4"/>
    <rect x="131" y="8" width="35" height="35" rx="4" fill="#EEE4DA"/>
    <text x="148" y="32" text-anchor="middle" font-family="sans-serif" font-size="16" font-weight="700" fill="#776E65">2</text>

    <rect x="8" y="49" width="35" height="35" rx="4" fill="#EEE4DA"/>
    <text x="25" y="73" text-anchor="middle" font-family="sans-serif" font-size="16" font-weight="700" fill="#776E65">2</text>
    <rect x="49" y="49" width="35" height="35" rx="4" fill="#F2B179"/>
    <text x="66" y="73" text-anchor="middle" font-family="sans-serif" font-size="16" font-weight="700" fill="#F9F6F2">8</text>
    <rect x="90" y="49" width="35" height="35" rx="4" fill="#F59563"/>
    <text x="107" y="73" text-anchor="middle" font-family="sans-serif" font-size="14" font-weight="700" fill="#F9F6F2">16</text>
    <rect x="131" y="49" width="35" height="35" rx="4" fill="#CDC1B4"/>

    <rect x="8" y="90" width="35" height="35" rx="4" fill="#CDC1B4"/>
    <rect x="49" y="90" width="35" height="35" rx="4" fill="#EDE0C8"/>
    <text x="66" y="114" text-anchor="middle" font-family="sans-serif" font-size="16" font-weight="700" fill="#776E65">4</text>
    <rect x="90" y="90" width="35" height="35" rx="4" fill="#F67C5F"/>
    <text x="107" y="114" text-anchor="middle" font-family="sans-serif" font-size="14" font-weight="700" fill="#F9F6F2">32</text>
    <rect x="131" y="90" width="35" height="35" rx="4" fill="#EDCF72"/>
    <text x="148" y="114" text-anchor="middle" font-family="sans-serif" font-size="12" font-weight="700" fill="#F9F6F2">128</text>

    <rect x="8" y="131" width="35" height="35" rx="4" fill="#EEE4DA"/>
    <text x="25" y="155" text-anchor="middle" font-family="sans-serif" font-size="16" font-weight="700" fill="#776E65">2</text>
    <rect x="49" y="131" width="35" height="35" rx="4" fill="#CDC1B4"/>
    <rect x="90" y="131" width="35" height="35" rx="4" fill="#EEE4DA"/>
    <text x="107" y="155" text-anchor="middle" font-family="sans-serif" font-size="16" font-weight="700" fill="#776E65">2</text>
    <rect x="131" y="131" width="35" height="35" rx="4" fill="#F65E3B"/>
    <text x="148" y="155" text-anchor="middle" font-family="sans-serif" font-size="14" font-weight="700" fill="#F9F6F2">64</text>
  </g>
  <!-- タイトル -->
  <text x="200" y="230" text-anchor="middle" font-family="sans-serif" font-size="24" font-weight="700" fill="#776E65">2048</text>
</svg>
