<svg xmlns="http://www.w3.org/2000/svg" viewBox="0 0 400 250" width="400" height="250">
  <rect width="400" height="250" rx="16" fill="#E3F2FD"/>
  <!-- Bricks -->
  <rect x="50" y="25" width="55" height="18" rx="3" fill="#F44336"/>
  <rect x="110" y="25" width="55" height="18" rx="3" fill="#F44336"/>
  <rect x="170" y="25" width="55" height="18" rx="3" fill="#F44336"/>
  <rect x="230" y="25" width="55" height="18" rx="3" fill="#F44336"/>
  <rect x="290" y="25" width="55" height="18" rx="3" fill="#F44336"/>
  <rect x="50" y="48" width="55" height="18" rx="3" fill="#FF9800"/>
  <rect x="110" y="48" width="55" height="18" rx="3" fill="#FF9800"/>
  <rect x="170" y="48" width="55" height="18" rx="3" fill="#FF9800"/>
  <rect x="230" y="48" width="55" height="18" rx="3" fill="#FF9800"/>
  <rect x="290" y="48" width="55" height="18" rx="3" fill="#FF9800"/>
  <rect x="50" y="71" width="55" height="18" rx="3" fill="#4CAF50"/>
  <rect x="110" y="71" width="55" height="18" rx="3" fill="#4CAF50"/>
  <rect x="170" y="71" width="55" height="18" rx="3" fill="#4CAF50" opacity="0.3"/>
  <rect x="230" y="71" width="55" height="18" rx="3" fill="#4CAF50"/>
  <rect x="290" y="71" width="55" height="18" rx="3" fill="#4CAF50" opacity="0.3"/>
  <rect x="50" y="94" width="55" height="18" rx="3" fill="#2196F3"/>
  <rect x="110" y="94" width="55" height="18" rx="3" fill="#2196F3" opacity="0.3"/>
  <rect x="170" y="94" width="55" height="18" rx="3" fill="#2196F3"/>
  <rect x="230" y="94" width="55" height="18" rx="3" fill="#2196F3"/>
  <rect x="290" y="94" width="55" height="18" rx="3" fill="#2196F3"/>
  <!-- Ball -->
  <circle cx="220" cy="145" r="8" fill="#333"/>
  <!-- Paddle -->
  <rect x="155" y="185" width="80" height="14" rx="7" fill="#1565C0"/>
  <text x="200" y="232" text-anchor="middle" font-family="sans-serif" font-size="22" font-weight="700" fill="#1565C0">Breakout</text>
</svg>
