<svg xmlns="http://www.w3.org/2000/svg" viewBox="0 0 400 250" width="400" height="250">
  <rect width="400" height="250" rx="16" fill="#E0F2F1"/>
  <!-- Maze walls -->
  <g stroke="#26A69A" stroke-width="3" fill="none">
    <rect x="100" y="20" width="200" height="180" rx="4"/>
    <line x1="100" y1="50" x2="160" y2="50"/>
    <line x1="190" y1="20" x2="190" y2="50"/>
    <line x1="220" y1="50" x2="300" y2="50"/>
    <line x1="130" y1="80" x2="190" y2="80"/>
    <line x1="220" y1="80" x2="260" y2="80"/>
    <line x1="260" y1="50" x2="260" y2="80"/>
    <line x1="100" y1="110" x2="160" y2="110"/>
    <line x1="160" y1="80" x2="160" y2="140"/>
    <line x1="190" y1="110" x2="260" y2="110"/>
    <line x1="130" y1="140" x2="130" y2="170"/>
    <line x1="190" y1="110" x2="190" y2="170"/>
    <line x1="220" y1="140" x2="300" y2="140"/>
    <line x1="220" y1="140" x2="220" y2="170"/>
    <line x1="130" y1="170" x2="190" y2="170"/>
    <line x1="260" y1="110" x2="260" y2="170"/>
  </g>
  <!-- Player -->
  <circle cx="120" cy="35" r="10" fill="#E67E22"/>
  <!-- Goal -->
  <rect x="270" y="175" width="16" height="16" rx="3" fill="#F44336"/>
  <text x="278" y="188" text-anchor="middle" font-family="sans-serif" font-size="10" font-weight="700" fill="#fff">G</text>
  <text x="200" y="232" text-anchor="middle" font-family="sans-serif" font-size="22" font-weight="700" fill="#00897B">Maze</text>
</svg>
