<svg xmlns="http://www.w3.org/2000/svg" viewBox="0 0 400 250" width="400" height="250">
  <rect width="400" height="250" rx="16" fill="#FFF3E0"/>
  <!-- Cards grid -->
  <g transform="translate(65, 20)">
    <!-- Row 1 -->
    <rect x="0" y="0" width="60" height="75" rx="8" fill="#E67E22"/>
    <text x="30" y="45" text-anchor="middle" font-size="10" fill="#fff">?</text>
    <rect x="70" y="0" width="60" height="75" rx="8" fill="#fff" stroke="#E0E0E0" stroke-width="1"/>
    <text x="100" y="52" text-anchor="middle" font-size="32">🐱</text>
    <rect x="140" y="0" width="60" height="75" rx="8" fill="#fff" stroke="#E0E0E0" stroke-width="1"/>
    <text x="170" y="52" text-anchor="middle" font-size="32">🐶</text>
    <rect x="210" y="0" width="60" height="75" rx="8" fill="#E67E22"/>
    <text x="240" y="45" text-anchor="middle" font-size="10" fill="#fff">?</text>
    <!-- Row 2 -->
    <rect x="0" y="85" width="60" height="75" rx="8" fill="#fff" stroke="#E0E0E0" stroke-width="1"/>
    <text x="30" y="137" text-anchor="middle" font-size="32">🐶</text>
    <rect x="70" y="85" width="60" height="75" rx="8" fill="#E67E22"/>
    <text x="100" y="130" text-anchor="middle" font-size="10" fill="#fff">?</text>
    <rect x="140" y="85" width="60" height="75" rx="8" fill="#E67E22"/>
    <text x="170" y="130" text-anchor="middle" font-size="10" fill="#fff">?</text>
    <rect x="210" y="85" width="60" height="75" rx="8" fill="#fff" stroke="#E0E0E0" stroke-width="1"/>
    <text x="240" y="137" text-anchor="middle" font-size="32">🐱</text>
    <!-- Matched pair glow -->
    <rect x="68" y="-2" width="64" height="79" rx="10" fill="none" stroke="#F39C12" stroke-width="2" opacity="0.6"/>
    <rect x="208" y="83" width="64" height="79" rx="10" fill="none" stroke="#F39C12" stroke-width="2" opacity="0.6"/>
  </g>
  <text x="200" y="235" text-anchor="middle" font-family="sans-serif" font-size="22" font-weight="700" fill="#E67E22">Memory</text>
</svg>
