<svg xmlns="http://www.w3.org/2000/svg" viewBox="0 0 400 250" width="400" height="250">
  <rect width="400" height="250" rx="16" fill="#ECEFF1"/>
  <g transform="translate(100, 15)">
    <!-- Grid -->
    <g>
      <!-- Unrevealed cells (raised look) -->
      <rect x="0" y="0" width="40" height="40" rx="3" fill="#BDBDBD" stroke="#9E9E9E" stroke-width="1"/>
      <rect x="44" y="0" width="40" height="40" rx="3" fill="#E0E0E0" stroke="#BDBDBD" stroke-width="1"/>
      <text x="64" y="27" text-anchor="middle" font-family="sans-serif" font-size="20" font-weight="700" fill="#1565C0">1</text>
      <rect x="88" y="0" width="40" height="40" rx="3" fill="#E0E0E0" stroke="#BDBDBD" stroke-width="1"/>
      <text x="108" y="27" text-anchor="middle" font-family="sans-serif" font-size="20" font-weight="700" fill="#2E7D32">2</text>
      <rect x="132" y="0" width="40" height="40" rx="3" fill="#BDBDBD" stroke="#9E9E9E" stroke-width="1"/>
      <rect x="176" y="0" width="40" height="40" rx="3" fill="#BDBDBD" stroke="#9E9E9E" stroke-width="1"/>
      <!-- Row 2 -->
      <rect x="0" y="44" width="40" height="40" rx="3" fill="#E0E0E0" stroke="#BDBDBD" stroke-width="1"/>
      <text x="20" y="71" text-anchor="middle" font-family="sans-serif" font-size="20" font-weight="700" fill="#1565C0">1</text>
      <rect x="44" y="44" width="40" height="40" rx="3" fill="#E0E0E0" stroke="#BDBDBD" stroke-width="1"/>
      <text x="64" y="71" text-anchor="middle" font-family="sans-serif" font-size="20" font-weight="700" fill="#C62828">3</text>
      <rect x="88" y="44" width="40" height="40" rx="3" fill="#BDBDBD" stroke="#9E9E9E" stroke-width="1"/>
      <text x="108" y="71" text-anchor="middle" font-size="22">🚩</text>
      <rect x="132" y="44" width="40" height="40" rx="3" fill="#E0E0E0" stroke="#BDBDBD" stroke-width="1"/>
      <text x="152" y="71" text-anchor="middle" font-family="sans-serif" font-size="20" font-weight="700" fill="#2E7D32">2</text>
      <rect x="176" y="44" width="40" height="40" rx="3" fill="#BDBDBD" stroke="#9E9E9E" stroke-width="1"/>
      <!-- Row 3 -->
      <rect x="0" y="88" width="40" height="40" rx="3" fill="#E0E0E0" stroke="#BDBDBD" stroke-width="1"/>
      <rect x="44" y="88" width="40" height="40" rx="3" fill="#E0E0E0" stroke="#BDBDBD" stroke-width="1"/>
      <text x="64" y="115" text-anchor="middle" font-family="sans-serif" font-size="20" font-weight="700" fill="#1565C0">1</text>
      <rect x="88" y="88" width="40" height="40" rx="3" fill="#E0E0E0" stroke="#BDBDBD" stroke-width="1"/>
      <text x="108" y="115" text-anchor="middle" font-family="sans-serif" font-size="20" font-weight="700" fill="#1565C0">1</text>
      <rect x="132" y="88" width="40" height="40" rx="3" fill="#E0E0E0" stroke="#BDBDBD" stroke-width="1"/>
      <text x="152" y="115" text-anchor="middle" font-family="sans-serif" font-size="20" font-weight="700" fill="#1565C0">1</text>
      <rect x="176" y="88" width="40" height="40" rx="3" fill="#BDBDBD" stroke="#9E9E9E" stroke-width="1"/>
      <!-- Row 4 -->
      <rect x="0" y="132" width="40" height="40" rx="3" fill="#E0E0E0" stroke="#BDBDBD" stroke-width="1"/>
      <rect x="44" y="132" width="40" height="40" rx="3" fill="#E0E0E0" stroke="#BDBDBD" stroke-width="1"/>
      <rect x="88" y="132" width="40" height="40" rx="3" fill="#E0E0E0" stroke="#BDBDBD" stroke-width="1"/>
      <rect x="132" y="132" width="40" height="40" rx="3" fill="#E0E0E0" stroke="#BDBDBD" stroke-width="1"/>
      <rect x="176" y="132" width="40" height="40" rx="3" fill="#BDBDBD" stroke="#9E9E9E" stroke-width="1"/>
    </g>
  </g>
  <text x="200" y="235" text-anchor="middle" font-family="sans-serif" font-size="20" font-weight="700" fill="#546E7A">Minesweeper</text>
</svg>
