<svg xmlns="http://www.w3.org/2000/svg" viewBox="0 0 400 250" width="400" height="250">
  <rect width="400" height="250" rx="16" fill="#FFF8E1"/>
  <g transform="translate(120, 18)">
    <rect width="168" height="168" rx="8" fill="#BBADA0"/>
    <!-- Row 1 -->
    <rect x="6" y="6" width="36" height="36" rx="4" fill="#EDE0C8"/>
    <text x="24" y="30" text-anchor="middle" font-family="sans-serif" font-size="16" font-weight="700" fill="#776E65">1</text>
    <rect x="46" y="6" width="36" height="36" rx="4" fill="#EDE0C8"/>
    <text x="64" y="30" text-anchor="middle" font-family="sans-serif" font-size="16" font-weight="700" fill="#776E65">2</text>
    <rect x="86" y="6" width="36" height="36" rx="4" fill="#EDE0C8"/>
    <text x="104" y="30" text-anchor="middle" font-family="sans-serif" font-size="16" font-weight="700" fill="#776E65">3</text>
    <rect x="126" y="6" width="36" height="36" rx="4" fill="#EDE0C8"/>
    <text x="144" y="30" text-anchor="middle" font-family="sans-serif" font-size="16" font-weight="700" fill="#776E65">4</text>
    <!-- Row 2 -->
    <rect x="6" y="46" width="36" height="36" rx="4" fill="#EDE0C8"/>
    <text x="24" y="70" text-anchor="middle" font-family="sans-serif" font-size="16" font-weight="700" fill="#776E65">5</text>
    <rect x="46" y="46" width="36" height="36" rx="4" fill="#F2B179"/>
    <text x="64" y="70" text-anchor="middle" font-family="sans-serif" font-size="16" font-weight="700" fill="#fff">10</text>
    <rect x="86" y="46" width="36" height="36" rx="4" fill="#EDE0C8"/>
    <text x="104" y="70" text-anchor="middle" font-family="sans-serif" font-size="16" font-weight="700" fill="#776E65">6</text>
    <rect x="126" y="46" width="36" height="36" rx="4" fill="#EDE0C8"/>
    <text x="144" y="70" text-anchor="middle" font-family="sans-serif" font-size="16" font-weight="700" fill="#776E65">8</text>
    <!-- Row 3 -->
    <rect x="6" y="86" width="36" height="36" rx="4" fill="#EDE0C8"/>
    <text x="24" y="110" text-anchor="middle" font-family="sans-serif" font-size="16" font-weight="700" fill="#776E65">9</text>
    <rect x="46" y="86" width="36" height="36" rx="4" fill="#CDC1B4"/>
    <rect x="86" y="86" width="36" height="36" rx="4" fill="#EDE0C8"/>
    <text x="104" y="110" text-anchor="middle" font-family="sans-serif" font-size="16" font-weight="700" fill="#776E65">7</text>
    <rect x="126" y="86" width="36" height="36" rx="4" fill="#EDE0C8"/>
    <text x="144" y="110" text-anchor="middle" font-family="sans-serif" font-size="14" font-weight="700" fill="#776E65">11</text>
    <!-- Row 4 -->
    <rect x="6" y="126" width="36" height="36" rx="4" fill="#EDE0C8"/>
    <text x="24" y="150" text-anchor="middle" font-family="sans-serif" font-size="14" font-weight="700" fill="#776E65">13</text>
    <rect x="46" y="126" width="36" height="36" rx="4" fill="#EDE0C8"/>
    <text x="64" y="150" text-anchor="middle" font-family="sans-serif" font-size="14" font-weight="700" fill="#776E65">14</text>
    <rect x="86" y="126" width="36" height="36" rx="4" fill="#EDE0C8"/>
    <text x="104" y="150" text-anchor="middle" font-family="sans-serif" font-size="14" font-weight="700" fill="#776E65">15</text>
    <rect x="126" y="126" width="36" height="36" rx="4" fill="#EDE0C8"/>
    <text x="144" y="150" text-anchor="middle" font-family="sans-serif" font-size="14" font-weight="700" fill="#776E65">12</text>
  </g>
  <text x="200" y="228" text-anchor="middle" font-family="sans-serif" font-size="22" font-weight="700" fill="#776E65">15 Puzzle</text>
</svg>
