<svg xmlns="http://www.w3.org/2000/svg" viewBox="0 0 200 150">
  <defs>
    <linearGradient id="bg" x1="0" y1="0" x2="0" y2="1">
      <stop offset="0%" stop-color="#0d001a"/>
      <stop offset="100%" stop-color="#1a0a2e"/>
    </linearGradient>
  </defs>
  <rect width="200" height="150" fill="url(#bg)" rx="12"/>
  <!-- レーン線 -->
  <line x1="50" y1="0" x2="50" y2="150" stroke="rgba(255,255,255,0.08)" stroke-width="1"/>
  <line x1="100" y1="0" x2="100" y2="150" stroke="rgba(255,255,255,0.08)" stroke-width="1"/>
  <line x1="150" y1="0" x2="150" y2="150" stroke="rgba(255,255,255,0.08)" stroke-width="1"/>
  <!-- 判定ライン -->
  <line x1="0" y1="120" x2="200" y2="120" stroke="rgba(187,134,252,0.6)" stroke-width="3"/>
  <line x1="0" y1="120" x2="200" y2="120" stroke="rgba(255,255,255,0.4)" stroke-width="1"/>
  <!-- ノーツ -->
  <rect x="10" y="30" width="30" height="12" rx="4" fill="#E74C3C"/>
  <rect x="60" y="55" width="30" height="12" rx="4" fill="#3498DB"/>
  <rect x="110" y="75" width="30" height="12" rx="4" fill="#2ECC71"/>
  <rect x="160" y="45" width="30" height="12" rx="4" fill="#F1C40F"/>
  <rect x="60" y="100" width="30" height="12" rx="4" fill="#3498DB"/>
  <rect x="110" y="20" width="30" height="12" rx="4" fill="#2ECC71"/>
  <rect x="10" y="85" width="30" height="12" rx="4" fill="#E74C3C"/>
  <!-- ハイライト -->
  <rect x="12" y="31" width="26" height="4" rx="2" fill="rgba(255,255,255,0.3)"/>
  <rect x="62" y="56" width="26" height="4" rx="2" fill="rgba(255,255,255,0.3)"/>
  <rect x="112" y="76" width="26" height="4" rx="2" fill="rgba(255,255,255,0.3)"/>
  <rect x="162" y="46" width="26" height="4" rx="2" fill="rgba(255,255,255,0.3)"/>
  <!-- PERFECT テキスト -->
  <text x="100" y="140" text-anchor="middle" font-size="11" font-weight="bold" fill="#F1C40F" font-family="sans-serif">PERFECT</text>
</svg>
