<svg xmlns="http://www.w3.org/2000/svg" viewBox="0 0 400 250" width="400" height="250">
  <rect width="400" height="250" rx="16" fill="#1A237E"/>
  <!-- Stars -->
  <circle cx="50" cy="30" r="1.5" fill="#fff" opacity="0.6"/>
  <circle cx="120" cy="55" r="1" fill="#fff" opacity="0.4"/>
  <circle cx="280" cy="25" r="1.5" fill="#fff" opacity="0.5"/>
  <circle cx="350" cy="60" r="1" fill="#fff" opacity="0.4"/>
  <circle cx="180" cy="20" r="1" fill="#fff" opacity="0.3"/>
  <!-- Enemies -->
  <rect x="80" y="30" width="30" height="22" rx="4" fill="#F44336"/>
  <rect x="160" y="45" width="30" height="22" rx="4" fill="#FF9800"/>
  <rect x="240" y="30" width="30" height="22" rx="4" fill="#F44336"/>
  <rect x="120" y="75" width="30" height="22" rx="4" fill="#9C27B0"/>
  <rect x="200" y="80" width="30" height="22" rx="4" fill="#FF9800"/>
  <rect x="280" y="70" width="30" height="22" rx="4" fill="#9C27B0"/>
  <!-- Bullets -->
  <rect x="197" y="120" width="4" height="12" rx="2" fill="#FFEB3B"/>
  <rect x="197" y="100" width="4" height="12" rx="2" fill="#FFEB3B"/>
  <!-- Player ship -->
  <polygon points="200,165 180,195 200,188 220,195" fill="#4CAF50"/>
  <polygon points="200,170 192,188 200,184 208,188" fill="#81C784"/>
  <!-- Explosion -->
  <circle cx="310" cy="55" r="15" fill="#FF5722" opacity="0.6"/>
  <circle cx="310" cy="55" r="8" fill="#FFEB3B" opacity="0.8"/>
  <text x="200" y="235" text-anchor="middle" font-family="sans-serif" font-size="20" font-weight="700" fill="#fff">Shooting</text>
</svg>
