<svg xmlns="http://www.w3.org/2000/svg" viewBox="0 0 200 150">
  <defs>
    <linearGradient id="bg" x1="0" y1="0" x2="0" y2="1">
      <stop offset="0%" stop-color="#0d001a"/>
      <stop offset="100%" stop-color="#1a1a2e"/>
    </linearGradient>
  </defs>
  <rect width="200" height="150" fill="url(#bg)" rx="12"/>
  <!-- 星 -->
  <circle cx="30" cy="20" r="1.5" fill="rgba(255,255,255,0.5)"/>
  <circle cx="80" cy="35" r="1" fill="rgba(255,255,255,0.4)"/>
  <circle cx="150" cy="15" r="1.5" fill="rgba(255,255,255,0.6)"/>
  <circle cx="170" cy="50" r="1" fill="rgba(255,255,255,0.3)"/>
  <circle cx="45" cy="60" r="1" fill="rgba(255,255,255,0.5)"/>
  <!-- 足場 -->
  <rect x="20" y="120" width="50" height="8" rx="4" fill="#2ECC71"/>
  <rect x="90" y="95" width="45" height="8" rx="4" fill="#2ECC71"/>
  <rect x="50" y="70" width="45" height="8" rx="4" fill="#3498DB"/>
  <rect x="130" y="55" width="50" height="8" rx="4" fill="#2ECC71"/>
  <rect x="30" y="40" width="40" height="8" rx="4" fill="#E67E22"/>
  <!-- スライム -->
  <ellipse cx="112" cy="88" rx="14" ry="11" fill="#2ECC71"/>
  <ellipse cx="112" cy="83" rx="10" ry="6" fill="rgba(255,255,255,0.15)"/>
  <!-- 目 -->
  <ellipse cx="107" cy="85" rx="3" ry="3.5" fill="#fff"/>
  <circle cx="108" cy="86" r="1.5" fill="#1a1a2e"/>
  <ellipse cx="117" cy="85" rx="3" ry="3.5" fill="#fff"/>
  <circle cx="118" cy="86" r="1.5" fill="#1a1a2e"/>
  <!-- 口 -->
  <path d="M108 91 Q112 94 116 91" stroke="#27ae60" stroke-width="1.2" fill="none"/>
  <!-- バネ -->
  <circle cx="72" cy="66" r="4" fill="#E74C3C"/>
</svg>
