<svg xmlns="http://www.w3.org/2000/svg" viewBox="0 0 200 150">
  <rect width="200" height="150" fill="#2b1810" rx="12"/>
  <!-- 床 -->
  <rect x="30" y="25" width="140" height="100" fill="#4a3728" rx="4"/>
  <!-- 壁 -->
  <rect x="30" y="25" width="20" height="100" fill="#6b4226"/>
  <rect x="150" y="25" width="20" height="100" fill="#6b4226"/>
  <rect x="30" y="25" width="140" height="20" fill="#6b4226"/>
  <rect x="30" y="105" width="140" height="20" fill="#6b4226"/>
  <rect x="70" y="25" width="20" height="20" fill="#6b4226"/>
  <rect x="110" y="105" width="20" height="20" fill="#6b4226"/>
  <!-- ゴール -->
  <line x1="115" y1="55" x2="125" y2="65" stroke="#c4a45a" stroke-width="2"/>
  <line x1="125" y1="55" x2="115" y2="65" stroke="#c4a45a" stroke-width="2"/>
  <line x1="75" y1="80" x2="85" y2="90" stroke="#c4a45a" stroke-width="2"/>
  <line x1="85" y1="80" x2="75" y2="90" stroke="#c4a45a" stroke-width="2"/>
  <!-- 箱 -->
  <rect x="82" y="52" width="18" height="18" rx="3" fill="#d4a44a"/>
  <line x1="91" y1="54" x2="91" y2="68" stroke="rgba(139,69,19,0.4)" stroke-width="1.5"/>
  <line x1="84" y1="61" x2="98" y2="61" stroke="rgba(139,69,19,0.4)" stroke-width="1.5"/>
  <!-- ゴール上の箱 -->
  <rect x="72" y="77" width="18" height="18" rx="3" fill="#27ae60"/>
  <line x1="81" y1="79" x2="81" y2="93" stroke="rgba(255,255,255,0.3)" stroke-width="1.5"/>
  <line x1="74" y1="86" x2="88" y2="86" stroke="rgba(255,255,255,0.3)" stroke-width="1.5"/>
  <!-- プレイヤー -->
  <circle cx="120" cy="86" r="8" fill="#3498DB"/>
  <circle cx="117" cy="84" r="2" fill="#fff"/>
  <circle cx="117.5" cy="84.5" r="1" fill="#1a1a2e"/>
  <circle cx="123" cy="84" r="2" fill="#fff"/>
  <circle cx="123.5" cy="84.5" r="1" fill="#1a1a2e"/>
  <path d="M117 89 Q120 91 123 89" stroke="#fff" stroke-width="1" fill="none"/>
</svg>
