<svg xmlns="http://www.w3.org/2000/svg" viewBox="0 0 400 250" width="400" height="250">
  <rect width="400" height="250" rx="16" fill="#E8EAF6"/>
  <!-- Grid background -->
  <g opacity="0.1">
    <line x1="140" y1="15" x2="140" y2="195" stroke="#3F51B5" stroke-width="1"/>
    <line x1="170" y1="15" x2="170" y2="195" stroke="#3F51B5" stroke-width="1"/>
    <line x1="200" y1="15" x2="200" y2="195" stroke="#3F51B5" stroke-width="1"/>
    <line x1="230" y1="15" x2="230" y2="195" stroke="#3F51B5" stroke-width="1"/>
    <line x1="260" y1="15" x2="260" y2="195" stroke="#3F51B5" stroke-width="1"/>
    <line x1="110" y1="45" x2="290" y2="45" stroke="#3F51B5" stroke-width="1"/>
    <line x1="110" y1="75" x2="290" y2="75" stroke="#3F51B5" stroke-width="1"/>
    <line x1="110" y1="105" x2="290" y2="105" stroke="#3F51B5" stroke-width="1"/>
    <line x1="110" y1="135" x2="290" y2="135" stroke="#3F51B5" stroke-width="1"/>
    <line x1="110" y1="165" x2="290" y2="165" stroke="#3F51B5" stroke-width="1"/>
  </g>
  <!-- T-piece falling -->
  <rect x="170" y="25" width="28" height="28" rx="4" fill="#9C27B0"/>
  <rect x="142" y="53" width="28" height="28" rx="4" fill="#9C27B0"/>
  <rect x="170" y="53" width="28" height="28" rx="4" fill="#9C27B0"/>
  <rect x="198" y="53" width="28" height="28" rx="4" fill="#9C27B0"/>
  <!-- Stacked pieces at bottom -->
  <rect x="112" y="165" width="28" height="28" rx="4" fill="#F44336"/>
  <rect x="140" y="165" width="28" height="28" rx="4" fill="#F44336"/>
  <rect x="168" y="165" width="28" height="28" rx="4" fill="#4CAF50"/>
  <rect x="196" y="165" width="28" height="28" rx="4" fill="#4CAF50"/>
  <rect x="224" y="165" width="28" height="28" rx="4" fill="#2196F3"/>
  <rect x="252" y="165" width="28" height="28" rx="4" fill="#FF9800"/>
  <rect x="140" y="137" width="28" height="28" rx="4" fill="#00BCD4"/>
  <rect x="168" y="137" width="28" height="28" rx="4" fill="#00BCD4"/>
  <rect x="196" y="137" width="28" height="28" rx="4" fill="#FFEB3B"/>
  <rect x="224" y="137" width="28" height="28" rx="4" fill="#FF9800"/>
  <text x="200" y="232" text-anchor="middle" font-family="sans-serif" font-size="22" font-weight="700" fill="#3F51B5">Tetris</text>
</svg>
