<svg xmlns="http://www.w3.org/2000/svg" viewBox="0 0 320 200">
  <rect width="320" height="200" rx="12" fill="#2d5a27"/>
  <!-- グリッド -->
  <g stroke="rgba(0,0,0,0.1)" stroke-width="0.5">
    <line x1="0" y1="44" x2="320" y2="44"/><line x1="0" y1="88" x2="320" y2="88"/>
    <line x1="0" y1="132" x2="320" y2="132"/><line x1="0" y1="176" x2="320" y2="176"/>
    <line x1="53" y1="0" x2="53" y2="200"/><line x1="106" y1="0" x2="106" y2="200"/>
    <line x1="160" y1="0" x2="160" y2="200"/><line x1="213" y1="0" x2="213" y2="200"/>
    <line x1="267" y1="0" x2="267" y2="200"/>
  </g>
  <!-- 道 -->
  <path d="M80,0 L80,44 L80,88 L80,132 L133,132 L186,132 L186,88 L186,44 L240,44 L240,88 L240,132 L240,176 L186,176 L133,176 L80,176 L80,200" stroke="none" fill="#c4a45a" stroke-width="0" opacity="0.9"/>
  <rect x="54" y="0" width="53" height="44" fill="#c4a45a" opacity="0.9"/>
  <rect x="54" y="44" width="53" height="44" fill="#c4a45a" opacity="0.9"/>
  <rect x="54" y="88" width="53" height="44" fill="#c4a45a" opacity="0.9"/>
  <rect x="107" y="88" width="53" height="44" fill="#c4a45a" opacity="0.9"/>
  <rect x="160" y="44" width="53" height="44" fill="#c4a45a" opacity="0.9"/>
  <rect x="160" y="88" width="53" height="44" fill="#c4a45a" opacity="0.9"/>
  <rect x="160" y="0" width="53" height="44" fill="#c4a45a" opacity="0.9"/>
  <rect x="213" y="88" width="54" height="44" fill="#c4a45a" opacity="0.9"/>
  <rect x="213" y="132" width="54" height="44" fill="#c4a45a" opacity="0.9"/>
  <rect x="160" y="132" width="53" height="44" fill="#c4a45a" opacity="0.9"/>
  <rect x="107" y="132" width="53" height="44" fill="#c4a45a" opacity="0.9"/>
  <rect x="54" y="132" width="53" height="44" fill="#c4a45a" opacity="0.9"/>
  <rect x="54" y="176" width="53" height="24" fill="#c4a45a" opacity="0.9"/>
  <!-- START -->
  <rect x="54" y="0" width="53" height="22" fill="#3498DB" rx="2"/>
  <text x="80" y="14" fill="#fff" font-size="9" font-weight="bold" text-anchor="middle">START</text>
  <!-- GOAL -->
  <rect x="54" y="178" width="53" height="22" fill="#E74C3C" rx="2"/>
  <text x="80" y="192" fill="#fff" font-size="9" font-weight="bold" text-anchor="middle">GOAL</text>
  <!-- タワー（青） -->
  <g>
    <rect x="3" y="72" width="44" height="44" rx="4" fill="#555"/>
    <circle cx="27" cy="96" r="12" fill="#3498DB"/>
    <line x1="27" y1="96" x2="45" y2="88" stroke="#333" stroke-width="3" stroke-linecap="round"/>
  </g>
  <!-- タワー（緑） -->
  <g>
    <rect x="110" y="28" width="44" height="44" rx="4" fill="#555"/>
    <circle cx="132" cy="52" r="12" fill="#2ECC71"/>
    <line x1="132" y1="52" x2="148" y2="60" stroke="#333" stroke-width="3" stroke-linecap="round"/>
  </g>
  <!-- タワー（赤） -->
  <g>
    <rect x="218" y="28" width="44" height="44" rx="4" fill="#555"/>
    <circle cx="240" cy="52" r="12" fill="#E74C3C"/>
    <line x1="240" y1="52" x2="258" y2="44" stroke="#333" stroke-width="3" stroke-linecap="round"/>
  </g>
  <!-- 敵 -->
  <circle cx="80" cy="66" r="8" fill="#E67E22" stroke="rgba(0,0,0,0.3)" stroke-width="1"/>
  <circle cx="186" cy="66" r="8" fill="#E67E22" stroke="rgba(0,0,0,0.3)" stroke-width="1"/>
  <circle cx="240" cy="154" r="12" fill="#8E44AD" stroke="rgba(0,0,0,0.3)" stroke-width="1"/>
  <text x="240" y="158" fill="#fff" font-size="10" font-weight="bold" text-anchor="middle">B</text>
  <!-- 弾 -->
  <circle cx="48" cy="88" r="3" fill="#85C1E9"/>
  <circle cx="155" cy="58" r="3" fill="#ABEBC6"/>
  <circle cx="252" cy="46" r="3" fill="#F5B7B1"/>
</svg>
